<svg xmlns="http://www.w3.org/2000/svg" width="400" height="400" viewBox="0 0 400 400" version="1.1"><path d="M 178.559 4.532 C 177.438 5.379, 174.451 6, 171.493 6 C 165.349 6, 154.876 7.798, 153.550 9.081 C 153.027 9.586, 151.367 10, 149.859 10 C 148.351 10, 146.840 10.450, 146.500 11 C 146.160 11.550, 144.585 12, 143 12 C 141.415 12, 139.840 12.450, 139.500 13 C 139.160 13.550, 137.839 14, 136.563 14 C 135.288 14, 133.685 14.675, 133 15.500 C 132.315 16.325, 130.798 17.014, 129.628 17.031 C 128.457 17.049, 124.811 18.399, 121.525 20.031 C 118.239 21.664, 115.193 23, 114.756 23 C 114.318 23, 112.057 24.203, 109.730 25.674 C 107.404 27.144, 102.575 29.882, 99 31.759 C 95.425 33.635, 90.839 36.482, 88.809 38.085 C 86.778 39.688, 84.753 41.007, 84.309 41.016 C 83.864 41.024, 81.253 43.049, 78.507 45.516 C 75.760 47.982, 73.060 50.004, 72.507 50.008 C 71.411 50.017, 56.716 64.486, 52.441 69.765 C 48.126 75.094, 51.155 78.309, 56.195 73.750 C 63.620 67.034, 67.836 63.726, 70.750 62.330 C 72.538 61.473, 74 60.350, 74 59.835 C 74 59.320, 75.463 58.233, 77.250 57.421 C 79.037 56.609, 82.300 54.824, 84.500 53.455 C 86.700 52.086, 89.513 50.534, 90.750 50.007 C 91.987 49.481, 93 48.588, 93 48.025 C 93 47.461, 93.632 47, 94.405 47 C 95.617 47, 98.801 45.621, 106.236 41.875 C 107.191 41.394, 108.660 41, 109.500 41 C 110.340 41, 111.809 40.596, 112.764 40.103 C 114.350 39.283, 119.465 37.256, 124.500 35.453 C 125.600 35.059, 127.850 34.563, 129.500 34.351 C 131.150 34.139, 132.650 33.523, 132.833 32.983 C 133.017 32.442, 134.839 32, 136.883 32 C 138.927 32, 141.028 31.597, 141.550 31.103 C 144.801 28.035, 214.300 28.009, 217.450 31.075 C 217.972 31.584, 219.570 32, 221 32 C 222.430 32, 224.028 32.389, 224.550 32.864 C 225.073 33.339, 227.750 34.249, 230.500 34.887 C 233.250 35.524, 237.300 36.764, 239.500 37.642 C 241.700 38.521, 244.625 39.688, 246 40.236 C 247.375 40.785, 249.281 41.631, 250.236 42.117 C 251.191 42.603, 252.809 43, 253.831 43 C 254.854 43, 256.505 43.900, 257.500 45 C 258.495 46.100, 259.796 47, 260.391 47 C 261.849 47, 272.414 52.307, 272.833 53.250 C 273.017 53.663, 273.635 54, 274.206 54 C 275.579 54, 287.501 62.505, 292.251 66.873 C 294.314 68.771, 297.239 71.078, 298.751 72 C 301.290 73.550, 304.239 76.448, 316.303 89.250 L 320.780 94 350.390 94 L 380 94 380 91.387 C 380 89.950, 378.865 87.363, 377.478 85.637 C 365.100 70.242, 356.681 61.138, 349.607 55.500 C 347.537 53.850, 343.334 50.362, 340.266 47.750 C 337.199 45.137, 334.139 43, 333.467 43 C 332.795 43, 331.688 42.329, 331.008 41.510 C 329.355 39.518, 318.290 32, 317.011 32 C 316.455 32, 316 31.618, 316 31.152 C 316 30.685, 314.313 29.588, 312.250 28.713 C 310.188 27.838, 306.115 25.745, 303.200 24.061 C 300.285 22.377, 297.049 21, 296.009 21 C 294.969 21, 293.860 20.583, 293.545 20.073 C 293.230 19.563, 291.291 18.629, 289.236 17.997 C 287.181 17.366, 284.150 16.255, 282.500 15.530 C 277.136 13.171, 274.572 12.247, 270.250 11.114 C 267.913 10.501, 264.313 9.547, 262.250 8.994 C 254.273 6.853, 249.290 6.048, 243.872 6.024 C 240.114 6.008, 237.831 5.502, 237 4.500 C 235.169 2.294, 181.479 2.323, 178.559 4.532 M 158.500 32.866 C 157.950 33.404, 154.350 34.029, 150.500 34.254 C 146.650 34.480, 141.025 35.442, 138 36.393 C 133.032 37.954, 128.921 38.970, 120.738 40.660 C 119.219 40.974, 117.729 41.629, 117.429 42.115 C 117.128 42.602, 116.243 43, 115.463 43 C 114.682 43, 110.680 44.575, 106.568 46.500 C 102.457 48.425, 98.452 50, 97.669 50 C 96.886 50, 95.692 50.666, 95.017 51.479 C 93.550 53.247, 88.250 56, 86.315 56 C 85.557 56, 84.678 56.675, 84.362 57.500 C 84.045 58.325, 83.332 59, 82.777 59 C 81.337 59, 68 67.992, 68 68.963 C 68 69.408, 66.425 70.520, 64.500 71.433 C 62.575 72.346, 61 73.748, 61 74.547 C 61 75.346, 60.593 76, 60.095 76 C 57.676 76, 36 98.259, 36 100.742 C 36 101.242, 34.875 102.708, 33.500 104 C 32.125 105.292, 31 106.860, 31 107.486 C 31 108.111, 29.988 109.709, 28.750 111.038 C 27.512 112.366, 25.433 115.488, 24.129 117.976 C 22.824 120.464, 21.104 123.738, 20.305 125.250 C 19.507 126.763, 18.527 128, 18.128 128 C 17.272 128, 15 133.954, 15 136.199 C 15 137.055, 14.374 138.275, 13.609 138.910 C 12.844 139.545, 12.003 141.287, 11.741 142.782 C 11.231 145.684, 8.306 154.361, 6.868 157.236 C 6.391 158.191, 6 160.689, 6 162.786 C 6 164.884, 5.471 167.129, 4.824 167.776 C 2.767 169.833, 1.776 178.927, 1.324 199.892 C 1.030 213.474, 1.237 220.637, 1.942 221.342 C 2.524 221.924, 3 224.955, 3 228.078 C 3 231.904, 3.489 234.161, 4.500 235 C 5.325 235.685, 6 237.620, 6 239.301 C 6 242.144, 7.162 246.737, 9.085 251.500 C 9.529 252.600, 10.674 256.087, 11.629 259.250 C 12.584 262.413, 13.733 265, 14.183 265 C 14.632 265, 15 265.922, 15 267.050 C 15 269.620, 17.724 275, 19.026 275 C 19.562 275, 20 275.904, 20 277.009 C 20 279.355, 28.349 292.578, 36.949 303.854 C 43.732 312.747, 64.672 332.949, 71.823 337.500 C 74.416 339.150, 78.104 341.652, 80.019 343.059 C 81.933 344.467, 85.525 346.557, 88 347.705 C 97.889 352.291, 99.558 353.089, 101 353.919 C 102.338 354.689, 109.025 357.758, 114.500 360.114 C 115.600 360.587, 119.141 361.645, 122.369 362.464 C 125.597 363.282, 128.747 364.363, 129.369 364.864 C 130.544 365.810, 135.583 366.703, 145 367.633 C 148.025 367.932, 150.927 368.586, 151.450 369.088 C 152.775 370.360, 201.711 370.276, 202.500 369 C 202.840 368.450, 205.315 368, 208 368 C 210.685 368, 213.160 367.550, 213.500 367 C 213.840 366.450, 215.779 365.985, 217.809 365.967 C 221.308 365.936, 231.298 363.035, 232.686 361.647 C 233.042 361.291, 234.271 360.993, 235.417 360.985 C 238.395 360.963, 243.292 359.067, 252.866 354.228 C 257.467 351.903, 261.759 350, 262.404 350 C 263.048 350, 265.134 348.668, 267.038 347.041 C 268.942 345.413, 271.224 344.063, 272.110 344.041 C 272.995 344.018, 274.565 342.875, 275.597 341.500 C 276.630 340.125, 277.964 339, 278.563 339 C 280.211 339, 284 334.599, 284 332.686 C 284 331.758, 283.242 331, 282.316 331 C 280.809 331, 274.427 333.578, 269.764 336.072 C 268.809 336.582, 267.148 337, 266.073 337 C 264.998 337, 263.840 337.450, 263.500 338 C 263.160 338.550, 261.884 339, 260.663 339 C 259.443 339, 257.557 339.609, 256.473 340.352 C 255.388 341.096, 252.475 342.014, 250 342.393 C 247.525 342.771, 243.250 343.702, 240.500 344.462 C 230.304 347.278, 222.919 348, 204.440 347.985 C 189.635 347.974, 184.517 347.621, 181 346.369 C 178.525 345.488, 175.825 344.688, 175 344.592 C 168.298 343.811, 158.211 341.441, 156.921 340.344 C 156.053 339.605, 154.584 339, 153.658 339 C 152.731 339, 151.079 338.550, 149.986 338 C 148.894 337.450, 147.106 336.550, 146.014 336 C 144.921 335.450, 143.539 335, 142.942 335 C 142.345 335, 141.183 334.326, 140.359 333.502 C 139.534 332.677, 137.654 331.717, 136.180 331.367 C 134.706 331.017, 132.825 330.184, 132 329.514 C 131.175 328.845, 128.475 327.221, 126 325.906 C 123.525 324.591, 119.654 322.049, 117.397 320.258 C 115.140 318.466, 112.995 317, 112.630 317 C 111.969 317, 104.432 310.004, 92.566 298.377 C 89.129 295.010, 85.276 290.735, 84.004 288.877 C 82.731 287.020, 81.195 285.050, 80.589 284.500 C 79.984 283.950, 78.382 281.311, 77.029 278.636 C 75.675 275.960, 73.990 273.550, 73.284 273.279 C 72.578 273.008, 72 272.202, 72 271.488 C 72 270.773, 71.131 268.459, 70.070 266.345 C 69.008 264.230, 67.372 260.363, 66.434 257.750 C 65.496 255.137, 64.339 253, 63.864 253 C 63.389 253, 63 251.902, 63 250.559 C 63 249.216, 62.550 247.840, 62 247.500 C 61.450 247.160, 61 245.607, 61 244.048 C 61 242.489, 60.396 240.982, 59.657 240.699 C 58.746 240.349, 57.946 236.560, 57.166 228.901 C 56.534 222.695, 55.563 217.163, 55.009 216.609 C 53.692 215.292, 53.656 186.285, 54.971 185.833 C 55.505 185.650, 56.440 181, 57.049 175.500 C 57.659 170, 58.742 164.825, 59.457 164 C 60.172 163.175, 61.020 161.150, 61.342 159.500 C 61.663 157.850, 62.229 154.925, 62.598 153 C 62.967 151.075, 63.884 149.140, 64.635 148.700 C 65.386 148.260, 66.002 147.135, 66.004 146.200 C 66.006 145.265, 66.906 143.027, 68.004 141.226 C 69.102 139.425, 70 137.322, 70 136.553 C 70 135.783, 71.012 133.880, 72.250 132.323 C 75.245 128.556, 77 125.340, 77 123.621 C 77 122.847, 77.686 121.951, 78.524 121.629 C 79.362 121.308, 80.375 120.161, 80.774 119.082 C 81.455 117.243, 86.444 111.305, 97 99.774 C 99.475 97.070, 102.556 94.434, 103.847 93.917 C 105.137 93.399, 106.413 92.137, 106.681 91.112 C 106.949 90.087, 108.368 88.630, 109.834 87.875 C 111.300 87.121, 112.725 86.241, 113 85.920 C 113.275 85.599, 117.396 82.811, 122.157 79.723 C 126.919 76.635, 131.108 73.635, 131.466 73.055 C 131.825 72.475, 133.386 72, 134.937 72 C 136.487 72, 138.279 71.369, 138.919 70.598 C 139.558 69.827, 141.301 68.892, 142.791 68.521 C 144.281 68.150, 147.075 67.160, 149 66.321 C 150.925 65.482, 153.625 64.339, 155 63.781 C 156.375 63.223, 158.281 62.369, 159.236 61.883 C 160.191 61.397, 162.066 61, 163.403 61 C 164.740 61, 166.008 60.476, 166.222 59.835 C 166.463 59.111, 171.783 58.188, 180.249 57.400 C 187.750 56.702, 194.783 55.651, 195.878 55.065 C 198.292 53.773, 214.461 53.643, 216.816 54.897 C 217.742 55.390, 224.350 56.317, 231.500 56.957 C 239.266 57.652, 245.392 58.700, 246.715 59.560 C 247.933 60.352, 250.049 61, 251.418 61 C 254.327 61, 259 62.948, 259 64.161 C 259 64.622, 260.323 65, 261.941 65 C 263.559 65, 265.122 65.388, 265.415 65.863 C 265.709 66.337, 268.098 67.306, 270.724 68.015 C 273.351 68.724, 276.210 69.911, 277.079 70.652 C 279.210 72.472, 282.925 72.358, 283.657 70.450 C 284.347 68.654, 278.310 62.792, 273.250 60.344 C 271.462 59.480, 270 58.395, 270 57.933 C 270 57.471, 268.313 56.360, 266.250 55.463 C 264.188 54.566, 261.600 53.337, 260.500 52.732 C 257.351 51, 253.718 49.215, 251 48.064 C 249.625 47.481, 247.825 46.606, 247 46.118 C 246.175 45.631, 244.150 44.677, 242.500 43.999 C 240.850 43.321, 238.719 42.369, 237.764 41.883 C 236.809 41.397, 234.473 41, 232.573 41 C 230.673 41, 228.840 40.550, 228.500 40 C 228.160 39.450, 226.981 39, 225.879 39 C 223.857 39, 215.195 36.560, 211.500 34.949 C 207.063 33.016, 160.229 31.175, 158.500 32.866 M 150 38.484 C 121.712 42.695, 95.657 53.511, 72 70.864 C 61.369 78.662, 42.615 97.864, 34.985 108.764 C 11.687 142.044, 1.023 184.187, 6.519 221.257 C 9.493 241.322, 13.742 255.516, 21.580 271.577 C 38.700 306.655, 71.466 337.721, 106.500 352.090 C 112 354.346, 117.400 356.566, 118.500 357.024 C 131.850 362.584, 154.901 366.226, 177 366.265 C 203.958 366.313, 223.882 362.380, 247.270 352.393 C 256.609 348.405, 264.408 344.075, 263.639 343.306 C 263.354 343.021, 260.281 343.685, 256.810 344.781 C 225.582 354.645, 187.758 354.476, 156.500 344.332 C 93.685 323.947, 50 265.495, 50 201.831 C 50 178.657, 56.522 153.082, 67.806 132 C 81.453 106.506, 105.949 82.578, 132.291 69.009 C 148.637 60.590, 161.997 56.347, 185.560 52.094 C 193.030 50.746, 221.105 50.654, 227.674 51.957 C 230.328 52.484, 236.325 53.648, 241 54.545 C 245.675 55.442, 253.011 57.261, 257.302 58.588 C 261.593 59.915, 265.409 61, 265.784 61 C 267.630 61, 258.076 55.551, 249.818 51.894 C 233.745 44.777, 222.448 41.453, 204.109 38.446 C 193.414 36.693, 161.886 36.715, 150 38.484 M 112.294 105.673 C 111.210 107.329, 110.627 109.899, 110.763 112.423 C 110.884 114.666, 111.034 118.638, 111.096 121.250 C 111.158 123.862, 111.243 127.125, 111.285 128.500 C 111.428 133.196, 111.322 268.490, 111.173 272 C 111.091 273.925, 111.020 277.750, 111.016 280.500 C 111.012 283.250, 110.898 288.900, 110.762 293.057 C 110.572 298.897, 110.917 301.225, 112.281 303.307 L 114.046 306 134.349 306 L 154.651 306 157.028 303.470 C 159.870 300.445, 159.746 304.866, 159.898 201.250 C 159.999 132.701, 160.020 132, 162 132 C 163.984 132, 164 132.667, 164 216.826 L 164 301.651 166.314 303.826 C 168.524 305.902, 169.494 306, 187.742 306 L 206.855 306 208.924 303.369 C 210.947 300.798, 211.217 297.653, 210.804 281.500 C 210.776 280.400, 210.575 246.313, 210.358 205.750 C 210.041 146.652, 210.214 131.983, 211.231 131.914 C 218.501 131.422, 234.617 132.374, 235.226 133.332 C 235.635 133.974, 235.976 172.548, 235.985 219.050 C 235.996 283.461, 236.286 303.886, 237.200 304.800 C 238.054 305.654, 244.210 306, 258.545 306 C 276.791 306, 278.846 305.828, 280.345 304.171 C 281.858 302.500, 282 295.018, 282 217.134 L 282 131.925 291.091 132.212 L 300.181 132.500 300.052 150.060 C 299.904 170.067, 299.986 170.288, 308 171.418 C 313.518 172.196, 314.414 172.203, 324.845 171.553 C 329.435 171.267, 335.060 171.453, 337.345 171.966 C 339.950 172.552, 341.854 172.546, 342.450 171.950 C 342.972 171.427, 344.221 171, 345.225 171 C 348.262 171, 349 166.685, 349 148.935 C 349 134.729, 349.236 132, 350.465 132 C 353.933 132, 354.496 135.908, 354.498 160 C 354.499 172.925, 354.177 184.287, 353.781 185.250 C 353.144 186.802, 351.438 187, 338.686 187 C 320.497 187, 321 186.598, 321 201.140 C 321 216.072, 320.913 216, 338.980 216 C 349.012 216, 353.103 216.348, 353.676 217.250 C 354.112 217.938, 354.621 229.279, 354.807 242.454 C 355.093 262.681, 354.886 267.232, 353.480 271.704 C 352.563 274.617, 351.454 277, 351.014 277 C 349.321 277, 348.938 273.033, 348.723 253.289 L 348.500 232.884 346.033 231.024 C 343.799 229.340, 341.789 229.189, 324.725 229.430 C 307.631 229.672, 305.634 229.883, 303.192 231.712 L 300.500 233.728 300.588 256.614 C 300.668 277.323, 300.879 280.051, 302.799 285.293 C 305.124 291.637, 314 302, 317.110 302 C 318.085 302, 319.160 302.450, 319.500 303 C 319.840 303.550, 321.891 304, 324.059 304 C 326.227 304, 328 304.376, 328 304.836 C 328 305.297, 325.525 306.925, 322.500 308.456 C 319.475 309.986, 317 311.681, 317 312.222 C 317 314.022, 293.944 335.768, 289.750 337.924 C 288.238 338.702, 287 339.706, 287 340.156 C 287 340.605, 285.538 341.652, 283.750 342.482 C 278.923 344.723, 273.546 348.088, 273.167 349.106 C 272.983 349.597, 271.993 350, 270.966 350 C 269.940 350, 268.740 350.589, 268.300 351.309 C 267.860 352.029, 266.038 353.208, 264.250 353.930 C 262.462 354.652, 261 355.638, 261 356.121 C 261 356.605, 260.127 357, 259.059 357 C 257.991 357, 256.840 357.450, 256.500 358 C 256.160 358.550, 255 359, 253.921 359 C 252.843 359, 250.178 360.125, 248 361.500 C 245.822 362.875, 243.205 364, 242.185 364 C 240.033 364, 228.318 367.582, 225.764 369.022 C 224.809 369.560, 222.248 370, 220.073 370 C 217.898 370, 215.840 370.450, 215.500 371 C 215.160 371.550, 213.446 372, 211.691 372 C 209.935 372, 205.349 372.667, 201.500 373.483 C 191.752 375.547, 162.835 375.559, 157 373.500 C 154.662 372.675, 150.132 372, 146.933 372 C 143.735 372, 140.840 371.550, 140.500 371 C 140.160 370.450, 138.135 370, 136 370 C 133.865 370, 131.840 369.550, 131.500 369 C 131.160 368.450, 129.649 368, 128.141 368 C 126.633 368, 124.973 367.604, 124.450 367.121 C 123.928 366.637, 121.700 365.708, 119.500 365.056 C 115.085 363.748, 109.721 361.702, 103.261 358.863 C 100.929 357.838, 98.567 357, 98.011 357 C 97.455 357, 97 356.622, 97 356.160 C 97 355.698, 95.216 354.731, 93.035 354.011 C 90.854 353.292, 88.075 351.645, 86.860 350.351 C 85.645 349.058, 84.049 348, 83.312 348 C 81.800 348, 78.260 346.127, 76.211 344.243 C 75.459 343.552, 73.872 342.467, 72.684 341.831 C 70.042 340.417, 58.484 331.626, 54.849 328.266 C 52.193 325.811, 48.997 325.504, 48.287 327.637 C 47.929 328.713, 55.356 338.140, 57.098 338.819 C 57.548 338.995, 62.998 344.051, 69.208 350.055 C 75.419 356.058, 81.110 360.977, 81.856 360.985 C 82.602 360.993, 84.097 362.125, 85.179 363.500 C 86.260 364.875, 87.772 366, 88.538 366 C 89.304 366, 91.468 367.350, 93.347 369 C 95.226 370.650, 97.276 372, 97.902 372 C 98.528 372, 100.718 373.038, 102.770 374.307 C 104.821 375.576, 111 378.770, 116.500 381.405 C 122 384.039, 127.281 386.601, 128.236 387.097 C 129.191 387.594, 131.077 388, 132.427 388 C 133.777 388, 135.160 388.450, 135.500 389 C 135.840 389.550, 137.404 390, 138.976 390 C 140.547 390, 142 390.501, 142.205 391.114 C 142.409 391.727, 143.684 392.386, 145.038 392.579 C 149.951 393.280, 155.306 394.877, 155.896 395.818 C 156.228 396.348, 158.750 397.039, 161.500 397.354 C 164.250 397.669, 170.100 398.361, 174.500 398.892 C 184.741 400.128, 232.172 400.180, 242 398.965 C 253.619 397.530, 258.994 396.406, 260.249 395.151 C 260.882 394.518, 262.633 394, 264.141 394 C 265.649 394, 267.148 393.570, 267.473 393.044 C 267.798 392.518, 268.707 392.334, 269.494 392.636 C 270.280 392.938, 272.360 392.468, 274.115 391.592 C 275.871 390.717, 278.048 390, 278.954 390 C 279.859 390, 281.028 389.628, 281.550 389.174 C 282.072 388.720, 284.419 387.745, 286.764 387.009 C 289.110 386.273, 291.527 385.070, 292.137 384.335 C 292.746 383.601, 294.455 383, 295.934 383 C 297.413 383, 299.589 382.100, 300.770 381 C 301.950 379.900, 303.316 379, 303.805 379 C 304.841 379, 308.859 376.908, 314.500 373.431 C 316.700 372.075, 319.418 370.570, 320.541 370.087 C 321.664 369.604, 323.181 368.486, 323.914 367.604 C 324.646 366.722, 325.757 366, 326.383 366 C 327.008 366, 328.641 364.968, 330.010 363.707 C 331.380 362.446, 334.525 360.022, 337 358.320 C 339.475 356.617, 342.881 353.937, 344.570 352.362 C 346.258 350.788, 348.733 348.560, 350.070 347.412 C 351.406 346.264, 353.442 344.239, 354.594 342.912 C 355.745 341.585, 359.570 337.703, 363.094 334.285 C 366.617 330.866, 371.015 326.029, 372.867 323.535 C 374.719 321.041, 376.631 319, 377.117 319 C 377.603 319, 378 318.386, 378 317.635 C 378 316.884, 378.900 315.126, 380 313.727 C 381.100 312.329, 382 310.765, 382 310.253 C 382 308.969, 377.431 307, 374.453 307 C 373.104 307, 372 306.598, 372 306.107 C 372 304.968, 374.508 304, 377.460 304 C 381.690 304, 387.077 300.967, 392.528 295.516 C 395.501 292.542, 398.287 288.847, 398.717 287.304 C 399.148 285.762, 399.500 248.050, 399.500 203.500 L 399.500 122.500 396.750 118.270 C 395.238 115.943, 394 113.733, 394 113.359 C 394 111.987, 387.585 107, 385.820 107 C 384.819 107, 384 106.550, 384 106 C 384 105.450, 382.677 105, 381.059 105 C 379.441 105, 377.840 104.550, 377.500 104 C 376.607 102.555, 328.649 102.679, 324.071 104.139 C 317.556 106.216, 315.537 107.360, 311.250 111.406 L 307 115.416 307 112.159 C 307 110.367, 306.313 107.573, 305.474 105.950 L 303.949 103 258.533 103 C 229.335 103, 212.897 103.357, 212.500 104 C 212.160 104.550, 211.009 105, 209.941 105 C 208.873 105, 208 104.550, 208 104 C 208 103.348, 191.674 103, 161.023 103 L 114.046 103 112.294 105.673 M 116.465 108.240 C 116.200 108.933, 116.100 152.475, 116.242 205 L 116.500 300.500 135 300.500 L 153.500 300.500 153.756 215.096 C 153.943 152.352, 154.318 129.322, 155.166 128.301 C 155.959 127.345, 158.046 127.002, 161.842 127.205 C 167.030 127.482, 167.414 127.681, 168.190 130.500 C 168.644 132.150, 168.979 170.795, 168.935 216.378 C 168.890 263.992, 169.237 299.637, 169.752 300.152 C 170.244 300.644, 178.714 300.924, 188.574 300.774 L 206.500 300.500 206.500 204 L 206.500 107.500 161.723 107.240 C 126.434 107.035, 116.843 107.246, 116.465 108.240 M 216.250 107.662 C 215.383 108.012, 215 110.864, 215 116.976 C 215 124.087, 215.305 125.903, 216.582 126.393 C 217.452 126.727, 222.289 127.007, 227.332 127.015 C 232.374 127.024, 237.060 127.386, 237.744 127.821 C 238.718 128.439, 239.044 147.324, 239.244 214.556 L 239.500 300.500 258 300.500 L 276.500 300.500 277 215 C 277.275 167.975, 277.864 128.938, 278.309 128.250 C 278.869 127.384, 282.264 127, 289.359 127 C 295.991 127, 300.023 126.577, 300.800 125.800 C 301.523 125.077, 302 121.578, 302 117 C 302 112.422, 301.523 108.923, 300.800 108.200 C 299.903 107.303, 289.235 107.020, 258.550 107.079 C 235.972 107.122, 216.938 107.385, 216.250 107.662 M 327.407 107.978 C 320.538 109.429, 314.338 112.903, 311.635 116.819 C 305.918 125.098, 305.549 126.976, 305.524 148 L 305.500 167.500 322.500 167.785 C 331.850 167.942, 340.512 167.821, 341.750 167.516 C 343.977 166.968, 344 166.782, 344.015 149.231 C 344.024 139.479, 344.361 131.005, 344.765 130.400 C 347.330 126.559, 355.076 126.405, 357.083 130.154 C 358.679 133.138, 358.342 190.164, 356.721 191.193 C 356.050 191.620, 348.846 191.976, 340.712 191.985 L 325.925 192 326.212 201.250 L 326.500 210.500 341.478 210.778 C 349.716 210.931, 356.859 211.459, 357.352 211.952 C 357.850 212.450, 358.174 227.189, 358.080 245.144 C 357.899 279.879, 357.824 280.383, 352.646 281.246 C 350.949 281.528, 345.833 279.884, 344.800 278.724 C 344.690 278.601, 344.353 268.825, 344.050 257 L 343.500 235.500 324.500 235.500 L 305.500 235.500 305.181 253.500 C 304.658 283.029, 307.341 291.313, 319.425 297.478 L 325.349 300.500 349.260 300.816 C 377.187 301.185, 381.083 300.468, 388.420 293.609 C 396.723 285.847, 396.500 288.334, 396.500 203.500 L 396.500 129.500 394.256 123.959 C 393.022 120.912, 390.322 116.769, 388.256 114.752 C 381.808 108.458, 378.363 107.729, 353.500 107.402 C 341.400 107.243, 329.658 107.502, 327.407 107.978 M 327.522 311.733 C 326.435 312.009, 321.599 316.158, 316.776 320.953 C 305.421 332.244, 301.286 336.013, 297 338.980 C 295.075 340.313, 293.275 341.662, 293 341.978 C 291.586 343.601, 284.008 348.998, 280.500 350.880 C 278.300 352.060, 273.340 354.765, 269.477 356.890 C 262.143 360.926, 247.628 367.268, 237.500 370.863 C 218.002 377.783, 181.882 380.884, 155.170 377.931 C 146.352 376.956, 127.138 373.058, 121 370.998 C 114.659 368.871, 96.829 361.451, 90.621 358.355 C 86.837 356.469, 83.571 355.096, 83.363 355.304 C 82.471 356.195, 104.417 370.161, 114.500 375.119 C 131.256 383.359, 140.716 386.798, 158.500 391.118 C 162.900 392.187, 168.075 393.476, 170 393.983 C 181.757 397.079, 219.743 397.701, 239 395.114 C 244.999 394.308, 258.355 391.223, 265.500 388.993 C 267.150 388.478, 271.650 387.095, 275.500 385.920 C 279.350 384.745, 285.425 382.421, 289 380.756 C 299.886 375.686, 307.397 372.004, 309.500 370.708 C 310.600 370.029, 313.750 368.147, 316.500 366.524 C 328.484 359.452, 342.218 348.584, 352.109 338.343 C 368.040 321.849, 374.893 313.226, 373.320 311.653 C 372.569 310.903, 330.510 310.976, 327.522 311.733" stroke="none" fill="#aed6ec" fill-rule="evenodd"/><path d="M 150 38.484 C 121.712 42.695, 95.657 53.511, 72 70.864 C 61.369 78.662, 42.615 97.864, 34.985 108.764 C 11.687 142.044, 1.023 184.187, 6.519 221.257 C 9.493 241.322, 13.742 255.516, 21.580 271.577 C 38.700 306.655, 71.466 337.721, 106.500 352.090 C 112 354.346, 117.400 356.566, 118.500 357.024 C 131.850 362.584, 154.901 366.226, 177 366.265 C 203.958 366.313, 223.882 362.380, 247.270 352.393 C 256.609 348.405, 264.408 344.075, 263.639 343.306 C 263.354 343.021, 260.281 343.685, 256.810 344.781 C 225.582 354.645, 187.758 354.476, 156.500 344.332 C 93.685 323.947, 50 265.495, 50 201.831 C 50 178.657, 56.522 153.082, 67.806 132 C 81.453 106.506, 105.949 82.578, 132.291 69.009 C 148.637 60.590, 161.997 56.347, 185.560 52.094 C 193.030 50.746, 221.105 50.654, 227.674 51.957 C 230.328 52.484, 236.325 53.648, 241 54.545 C 245.675 55.442, 253.011 57.261, 257.302 58.588 C 261.593 59.915, 265.409 61, 265.784 61 C 267.630 61, 258.076 55.551, 249.818 51.894 C 233.745 44.777, 222.448 41.453, 204.109 38.446 C 193.414 36.693, 161.886 36.715, 150 38.484 M 116.465 108.240 C 116.200 108.933, 116.100 152.475, 116.242 205 L 116.500 300.500 135 300.500 L 153.500 300.500 153.756 215.096 C 153.943 152.352, 154.318 129.322, 155.166 128.301 C 155.959 127.345, 158.046 127.002, 161.842 127.205 C 167.030 127.482, 167.414 127.681, 168.190 130.500 C 168.644 132.150, 168.979 170.795, 168.935 216.378 C 168.890 263.992, 169.237 299.637, 169.752 300.152 C 170.244 300.644, 178.714 300.924, 188.574 300.774 L 206.500 300.500 206.500 204 L 206.500 107.500 161.723 107.240 C 126.434 107.035, 116.843 107.246, 116.465 108.240 M 216.250 107.662 C 215.383 108.012, 215 110.864, 215 116.976 C 215 124.087, 215.305 125.903, 216.582 126.393 C 217.452 126.727, 222.289 127.007, 227.332 127.015 C 232.374 127.024, 237.060 127.386, 237.744 127.821 C 238.718 128.439, 239.044 147.324, 239.244 214.556 L 239.500 300.500 258 300.500 L 276.500 300.500 277 215 C 277.275 167.975, 277.864 128.938, 278.309 128.250 C 278.869 127.384, 282.264 127, 289.359 127 C 295.991 127, 300.023 126.577, 300.800 125.800 C 301.523 125.077, 302 121.578, 302 117 C 302 112.422, 301.523 108.923, 300.800 108.200 C 299.903 107.303, 289.235 107.020, 258.550 107.079 C 235.972 107.122, 216.938 107.385, 216.250 107.662 M 327.407 107.978 C 320.538 109.429, 314.338 112.903, 311.635 116.819 C 305.918 125.098, 305.549 126.976, 305.524 148 L 305.500 167.500 322.500 167.785 C 331.850 167.942, 340.512 167.821, 341.750 167.516 C 343.977 166.968, 344 166.782, 344.015 149.231 C 344.024 139.479, 344.361 131.005, 344.765 130.400 C 347.330 126.559, 355.076 126.405, 357.083 130.154 C 358.679 133.138, 358.342 190.164, 356.721 191.193 C 356.050 191.620, 348.846 191.976, 340.712 191.985 L 325.925 192 326.212 201.250 L 326.500 210.500 341.478 210.778 C 349.716 210.931, 356.859 211.459, 357.352 211.952 C 357.850 212.450, 358.174 227.189, 358.080 245.144 C 357.899 279.879, 357.824 280.383, 352.646 281.246 C 350.949 281.528, 345.833 279.884, 344.800 278.724 C 344.690 278.601, 344.353 268.825, 344.050 257 L 343.500 235.500 324.500 235.500 L 305.500 235.500 305.181 253.500 C 304.658 283.029, 307.341 291.313, 319.425 297.478 L 325.349 300.500 349.260 300.816 C 377.187 301.185, 381.083 300.468, 388.420 293.609 C 396.723 285.847, 396.500 288.334, 396.500 203.500 L 396.500 129.500 394.256 123.959 C 393.022 120.912, 390.322 116.769, 388.256 114.752 C 381.808 108.458, 378.363 107.729, 353.500 107.402 C 341.400 107.243, 329.658 107.502, 327.407 107.978 M 327.522 311.733 C 326.435 312.009, 321.599 316.158, 316.776 320.953 C 305.421 332.244, 301.286 336.013, 297 338.980 C 295.075 340.313, 293.275 341.662, 293 341.978 C 291.586 343.601, 284.008 348.998, 280.500 350.880 C 278.300 352.060, 273.340 354.765, 269.477 356.890 C 262.143 360.926, 247.628 367.268, 237.500 370.863 C 218.002 377.783, 181.882 380.884, 155.170 377.931 C 146.352 376.956, 127.138 373.058, 121 370.998 C 114.659 368.871, 96.829 361.451, 90.621 358.355 C 86.837 356.469, 83.571 355.096, 83.363 355.304 C 82.471 356.195, 104.417 370.161, 114.500 375.119 C 131.256 383.359, 140.716 386.798, 158.500 391.118 C 162.900 392.187, 168.075 393.476, 170 393.983 C 181.757 397.079, 219.743 397.701, 239 395.114 C 244.999 394.308, 258.355 391.223, 265.500 388.993 C 267.150 388.478, 271.650 387.095, 275.500 385.920 C 279.350 384.745, 285.425 382.421, 289 380.756 C 299.886 375.686, 307.397 372.004, 309.500 370.708 C 310.600 370.029, 313.750 368.147, 316.500 366.524 C 328.484 359.452, 342.218 348.584, 352.109 338.343 C 368.040 321.849, 374.893 313.226, 373.320 311.653 C 372.569 310.903, 330.510 310.976, 327.522 311.733" stroke="none" fill="#1684c5" fill-rule="evenodd"/></svg>